<svg xmlns:xlink="http://www.w3.org/1999/xlink" width="125.921ex" height="48.843ex" style="font-size: 15px; vertical-align: -24.338ex;" viewBox="0 -10550.6 54215.6 21029.4" role="img" focusable="false" xmlns="http://www.w3.org/2000/svg">
<defs>
<path stroke-width="1" id="E1-MJMATHI-43" d="M50 252Q50 367 117 473T286 641T490 704Q580 704 633 653Q642 643 648 636T656 626L657 623Q660 623 684 649Q691 655 699 663T715 679T725 690L740 705H746Q760 705 760 698Q760 694 728 561Q692 422 692 421Q690 416 687 415T669 413H653Q647 419 647 422Q647 423 648 429T650 449T651 481Q651 552 619 605T510 659Q484 659 454 652T382 628T299 572T226 479Q194 422 175 346T156 222Q156 108 232 58Q280 24 350 24Q441 24 512 92T606 240Q610 253 612 255T628 257Q648 257 648 248Q648 243 647 239Q618 132 523 55T319 -22Q206 -22 128 53T50 252Z"></path>
<path stroke-width="1" id="E1-MJMATHI-6F" d="M201 -11Q126 -11 80 38T34 156Q34 221 64 279T146 380Q222 441 301 441Q333 441 341 440Q354 437 367 433T402 417T438 387T464 338T476 268Q476 161 390 75T201 -11ZM121 120Q121 70 147 48T206 26Q250 26 289 58T351 142Q360 163 374 216T388 308Q388 352 370 375Q346 405 306 405Q243 405 195 347Q158 303 140 230T121 120Z"></path>
<path stroke-width="1" id="E1-MJMATHI-72" d="M21 287Q22 290 23 295T28 317T38 348T53 381T73 411T99 433T132 442Q161 442 183 430T214 408T225 388Q227 382 228 382T236 389Q284 441 347 441H350Q398 441 422 400Q430 381 430 363Q430 333 417 315T391 292T366 288Q346 288 334 299T322 328Q322 376 378 392Q356 405 342 405Q286 405 239 331Q229 315 224 298T190 165Q156 25 151 16Q138 -11 108 -11Q95 -11 87 -5T76 7T74 17Q74 30 114 189T154 366Q154 405 128 405Q107 405 92 377T68 316T57 280Q55 278 41 278H27Q21 284 21 287Z"></path>
<path stroke-width="1" id="E1-MJMATHI-65" d="M39 168Q39 225 58 272T107 350T174 402T244 433T307 442H310Q355 442 388 420T421 355Q421 265 310 237Q261 224 176 223Q139 223 138 221Q138 219 132 186T125 128Q125 81 146 54T209 26T302 45T394 111Q403 121 406 121Q410 121 419 112T429 98T420 82T390 55T344 24T281 -1T205 -11Q126 -11 83 42T39 168ZM373 353Q367 405 305 405Q272 405 244 391T199 357T170 316T154 280T149 261Q149 260 169 260Q282 260 327 284T373 353Z"></path>
<path stroke-width="1" id="E1-MJMAIN-23" d="M56 347Q56 360 70 367H313L355 524Q394 676 401 686Q406 694 416 694Q434 694 436 676Q436 672 396 522Q355 374 355 369L354 367H543L585 524Q626 679 630 685Q636 694 646 694Q653 694 659 689T665 678Q665 668 626 522Q585 374 585 369L584 367H762Q777 359 777 347Q777 334 767 331T722 327H667H572L552 251L531 174Q531 173 647 173H720Q756 173 766 170T777 153T762 133H519L477 -24Q436 -179 432 -185Q426 -194 416 -194Q409 -194 403 -189T397 -177Q397 -167 436 -21Q477 125 477 131L478 133H289L247 -24Q206 -179 202 -185Q196 -194 186 -194Q179 -194 173 -189T167 -177Q167 -167 206 -21Q247 125 247 131L248 133H70Q56 140 56 153Q56 168 72 173H260L280 249L301 326Q301 327 186 327H72Q56 332 56 347ZM531 326Q531 327 437 327H342L322 251L301 174Q301 173 395 173H490L510 249L531 326Z"></path>
<path stroke-width="1" id="E1-MJMATHI-69" d="M184 600Q184 624 203 642T247 661Q265 661 277 649T290 619Q290 596 270 577T226 557Q211 557 198 567T184 600ZM21 287Q21 295 30 318T54 369T98 420T158 442Q197 442 223 419T250 357Q250 340 236 301T196 196T154 83Q149 61 149 51Q149 26 166 26Q175 26 185 29T208 43T235 78T260 137Q263 149 265 151T282 153Q302 153 302 143Q302 135 293 112T268 61T223 11T161 -11Q129 -11 102 10T74 74Q74 91 79 106T122 220Q160 321 166 341T173 380Q173 404 156 404H154Q124 404 99 371T61 287Q60 286 59 284T58 281T56 279T53 278T49 278T41 278H27Q21 284 21 287Z"></path>
<path stroke-width="1" id="E1-MJMATHI-6E" d="M21 287Q22 293 24 303T36 341T56 388T89 425T135 442Q171 442 195 424T225 390T231 369Q231 367 232 367L243 378Q304 442 382 442Q436 442 469 415T503 336T465 179T427 52Q427 26 444 26Q450 26 453 27Q482 32 505 65T540 145Q542 153 560 153Q580 153 580 145Q580 144 576 130Q568 101 554 73T508 17T439 -10Q392 -10 371 17T350 73Q350 92 386 193T423 345Q423 404 379 404H374Q288 404 229 303L222 291L189 157Q156 26 151 16Q138 -11 108 -11Q95 -11 87 -5T76 7T74 17Q74 30 112 180T152 343Q153 348 153 366Q153 405 129 405Q91 405 66 305Q60 285 60 284Q58 278 41 278H27Q21 284 21 287Z"></path>
<path stroke-width="1" id="E1-MJMATHI-63" d="M34 159Q34 268 120 355T306 442Q362 442 394 418T427 355Q427 326 408 306T360 285Q341 285 330 295T319 325T330 359T352 380T366 386H367Q367 388 361 392T340 400T306 404Q276 404 249 390Q228 381 206 359Q162 315 142 235T121 119Q121 73 147 50Q169 26 205 26H209Q321 26 394 111Q403 121 406 121Q410 121 419 112T429 98T420 83T391 55T346 25T282 0T202 -11Q127 -11 81 37T34 159Z"></path>
<path stroke-width="1" id="E1-MJMATHI-6C" d="M117 59Q117 26 142 26Q179 26 205 131Q211 151 215 152Q217 153 225 153H229Q238 153 241 153T246 151T248 144Q247 138 245 128T234 90T214 43T183 6T137 -11Q101 -11 70 11T38 85Q38 97 39 102L104 360Q167 615 167 623Q167 626 166 628T162 632T157 634T149 635T141 636T132 637T122 637Q112 637 109 637T101 638T95 641T94 647Q94 649 96 661Q101 680 107 682T179 688Q194 689 213 690T243 693T254 694Q266 694 266 686Q266 675 193 386T118 83Q118 81 118 75T117 65V59Z"></path>
<path stroke-width="1" id="E1-MJMATHI-75" d="M21 287Q21 295 30 318T55 370T99 420T158 442Q204 442 227 417T250 358Q250 340 216 246T182 105Q182 62 196 45T238 27T291 44T328 78L339 95Q341 99 377 247Q407 367 413 387T427 416Q444 431 463 431Q480 431 488 421T496 402L420 84Q419 79 419 68Q419 43 426 35T447 26Q469 29 482 57T512 145Q514 153 532 153Q551 153 551 144Q550 139 549 130T540 98T523 55T498 17T462 -8Q454 -10 438 -10Q372 -10 347 46Q345 45 336 36T318 21T296 6T267 -6T233 -11Q189 -11 155 7Q103 38 103 113Q103 170 138 262T173 379Q173 380 173 381Q173 390 173 393T169 400T158 404H154Q131 404 112 385T82 344T65 302T57 280Q55 278 41 278H27Q21 284 21 287Z"></path>
<path stroke-width="1" id="E1-MJMATHI-64" d="M366 683Q367 683 438 688T511 694Q523 694 523 686Q523 679 450 384T375 83T374 68Q374 26 402 26Q411 27 422 35Q443 55 463 131Q469 151 473 152Q475 153 483 153H487H491Q506 153 506 145Q506 140 503 129Q490 79 473 48T445 8T417 -8Q409 -10 393 -10Q359 -10 336 5T306 36L300 51Q299 52 296 50Q294 48 292 46Q233 -10 172 -10Q117 -10 75 30T33 157Q33 205 53 255T101 341Q148 398 195 420T280 442Q336 442 364 400Q369 394 369 396Q370 400 396 505T424 616Q424 629 417 632T378 637H357Q351 643 351 645T353 664Q358 683 366 683ZM352 326Q329 405 277 405Q242 405 210 374T160 293Q131 214 119 129Q119 126 119 118T118 106Q118 61 136 44T179 26Q233 26 290 98L298 109L352 326Z"></path>
<path stroke-width="1" id="E1-MJMAIN-3C" d="M694 -11T694 -19T688 -33T678 -40Q671 -40 524 29T234 166L90 235Q83 240 83 250Q83 261 91 266Q664 540 678 540Q681 540 687 534T694 519T687 505Q686 504 417 376L151 250L417 124Q686 -4 687 -5Q694 -11 694 -19Z"></path>
<path stroke-width="1" id="E1-MJMATHI-45" d="M492 213Q472 213 472 226Q472 230 477 250T482 285Q482 316 461 323T364 330H312Q311 328 277 192T243 52Q243 48 254 48T334 46Q428 46 458 48T518 61Q567 77 599 117T670 248Q680 270 683 272Q690 274 698 274Q718 274 718 261Q613 7 608 2Q605 0 322 0H133Q31 0 31 11Q31 13 34 25Q38 41 42 43T65 46Q92 46 125 49Q139 52 144 61Q146 66 215 342T285 622Q285 629 281 629Q273 632 228 634H197Q191 640 191 642T193 659Q197 676 203 680H757Q764 676 764 669Q764 664 751 557T737 447Q735 440 717 440H705Q698 445 698 453L701 476Q704 500 704 528Q704 558 697 578T678 609T643 625T596 632T532 634H485Q397 633 392 631Q388 629 386 622Q385 619 355 499T324 377Q347 376 372 376H398Q464 376 489 391T534 472Q538 488 540 490T557 493Q562 493 565 493T570 492T572 491T574 487T577 483L544 351Q511 218 508 216Q505 213 492 213Z"></path>
<path stroke-width="1" id="E1-MJMATHI-67" d="M311 43Q296 30 267 15T206 0Q143 0 105 45T66 160Q66 265 143 353T314 442Q361 442 401 394L404 398Q406 401 409 404T418 412T431 419T447 422Q461 422 470 413T480 394Q480 379 423 152T363 -80Q345 -134 286 -169T151 -205Q10 -205 10 -137Q10 -111 28 -91T74 -71Q89 -71 102 -80T116 -111Q116 -121 114 -130T107 -144T99 -154T92 -162L90 -164H91Q101 -167 151 -167Q189 -167 211 -155Q234 -144 254 -122T282 -75Q288 -56 298 -13Q311 35 311 43ZM384 328L380 339Q377 350 375 354T369 368T359 382T346 393T328 402T306 405Q262 405 221 352Q191 313 171 233T151 117Q151 38 213 38Q269 38 323 108L331 118L384 328Z"></path>
<path stroke-width="1" id="E1-MJMAIN-2F" d="M423 750Q432 750 438 744T444 730Q444 725 271 248T92 -240Q85 -250 75 -250Q68 -250 62 -245T56 -231Q56 -221 230 257T407 740Q411 750 423 750Z"></path>
<path stroke-width="1" id="E1-MJMAIN-3E" d="M84 520Q84 528 88 533T96 539L99 540Q106 540 253 471T544 334L687 265Q694 260 694 250T687 235Q685 233 395 96L107 -40H101Q83 -38 83 -20Q83 -19 83 -17Q82 -10 98 -1Q117 9 248 71Q326 108 378 132L626 250L378 368Q90 504 86 509Q84 513 84 520Z"></path>
<path stroke-width="1" id="E1-MJMATHI-4D" d="M289 629Q289 635 232 637Q208 637 201 638T194 648Q194 649 196 659Q197 662 198 666T199 671T201 676T203 679T207 681T212 683T220 683T232 684Q238 684 262 684T307 683Q386 683 398 683T414 678Q415 674 451 396L487 117L510 154Q534 190 574 254T662 394Q837 673 839 675Q840 676 842 678T846 681L852 683H948Q965 683 988 683T1017 684Q1051 684 1051 673Q1051 668 1048 656T1045 643Q1041 637 1008 637Q968 636 957 634T939 623Q936 618 867 340T797 59Q797 55 798 54T805 50T822 48T855 46H886Q892 37 892 35Q892 19 885 5Q880 0 869 0Q864 0 828 1T736 2Q675 2 644 2T609 1Q592 1 592 11Q592 13 594 25Q598 41 602 43T625 46Q652 46 685 49Q699 52 704 61Q706 65 742 207T813 490T848 631L654 322Q458 10 453 5Q451 4 449 3Q444 0 433 0Q418 0 415 7Q413 11 374 317L335 624L267 354Q200 88 200 79Q206 46 272 46H282Q288 41 289 37T286 19Q282 3 278 1Q274 0 267 0Q265 0 255 0T221 1T157 2Q127 2 95 1T58 0Q43 0 39 2T35 11Q35 13 38 25T43 40Q45 46 65 46Q135 46 154 86Q158 92 223 354T289 629Z"></path>
<path stroke-width="1" id="E1-MJMATHI-61" d="M33 157Q33 258 109 349T280 441Q331 441 370 392Q386 422 416 422Q429 422 439 414T449 394Q449 381 412 234T374 68Q374 43 381 35T402 26Q411 27 422 35Q443 55 463 131Q469 151 473 152Q475 153 483 153H487Q506 153 506 144Q506 138 501 117T481 63T449 13Q436 0 417 -8Q409 -10 393 -10Q359 -10 336 5T306 36L300 51Q299 52 296 50Q294 48 292 46Q233 -10 172 -10Q117 -10 75 30T33 157ZM351 328Q351 334 346 350T323 385T277 405Q242 405 210 374T160 293Q131 214 119 129Q119 126 119 118T118 106Q118 61 136 44T179 26Q217 26 254 59T298 110Q300 114 325 217T351 328Z"></path>
<path stroke-width="1" id="E1-MJMATHI-74" d="M26 385Q19 392 19 395Q19 399 22 411T27 425Q29 430 36 430T87 431H140L159 511Q162 522 166 540T173 566T179 586T187 603T197 615T211 624T229 626Q247 625 254 615T261 596Q261 589 252 549T232 470L222 433Q222 431 272 431H323Q330 424 330 420Q330 398 317 385H210L174 240Q135 80 135 68Q135 26 162 26Q197 26 230 60T283 144Q285 150 288 151T303 153H307Q322 153 322 145Q322 142 319 133Q314 117 301 95T267 48T216 6T155 -11Q125 -11 98 4T59 56Q57 64 57 83V101L92 241Q127 382 128 383Q128 385 77 385H26Z"></path>
<path stroke-width="1" id="E1-MJMATHI-78" d="M52 289Q59 331 106 386T222 442Q257 442 286 424T329 379Q371 442 430 442Q467 442 494 420T522 361Q522 332 508 314T481 292T458 288Q439 288 427 299T415 328Q415 374 465 391Q454 404 425 404Q412 404 406 402Q368 386 350 336Q290 115 290 78Q290 50 306 38T341 26Q378 26 414 59T463 140Q466 150 469 151T485 153H489Q504 153 504 145Q504 144 502 134Q486 77 440 33T333 -11Q263 -11 227 52Q186 -10 133 -10H127Q78 -10 57 16T35 71Q35 103 54 123T99 143Q142 143 142 101Q142 81 130 66T107 46T94 41L91 40Q91 39 97 36T113 29T132 26Q168 26 194 71Q203 87 217 139T245 247T261 313Q266 340 266 352Q266 380 251 392T217 404Q177 404 142 372T93 290Q91 281 88 280T72 278H58Q52 284 52 289Z"></path>
<path stroke-width="1" id="E1-MJMATHI-41" d="M208 74Q208 50 254 46Q272 46 272 35Q272 34 270 22Q267 8 264 4T251 0Q249 0 239 0T205 1T141 2Q70 2 50 0H42Q35 7 35 11Q37 38 48 46H62Q132 49 164 96Q170 102 345 401T523 704Q530 716 547 716H555H572Q578 707 578 706L606 383Q634 60 636 57Q641 46 701 46Q726 46 726 36Q726 34 723 22Q720 7 718 4T704 0Q701 0 690 0T651 1T578 2Q484 2 455 0H443Q437 6 437 9T439 27Q443 40 445 43L449 46H469Q523 49 533 63L521 213H283L249 155Q208 86 208 74ZM516 260Q516 271 504 416T490 562L463 519Q447 492 400 412L310 260L413 259Q516 259 516 260Z"></path>
<path stroke-width="1" id="E1-MJMATHI-79" d="M21 287Q21 301 36 335T84 406T158 442Q199 442 224 419T250 355Q248 336 247 334Q247 331 231 288T198 191T182 105Q182 62 196 45T238 27Q261 27 281 38T312 61T339 94Q339 95 344 114T358 173T377 247Q415 397 419 404Q432 431 462 431Q475 431 483 424T494 412T496 403Q496 390 447 193T391 -23Q363 -106 294 -155T156 -205Q111 -205 77 -183T43 -117Q43 -95 50 -80T69 -58T89 -48T106 -45Q150 -45 150 -87Q150 -107 138 -122T115 -142T102 -147L99 -148Q101 -153 118 -160T152 -167H160Q177 -167 186 -165Q219 -156 247 -127T290 -65T313 -9T321 21L315 17Q309 13 296 6T270 -6Q250 -11 231 -11Q185 -11 150 11T104 82Q103 89 103 113Q103 170 138 262T173 379Q173 380 173 381Q173 390 173 393T169 400T158 404H154Q131 404 112 385T82 344T65 302T57 280Q55 278 41 278H27Q21 284 21 287Z"></path>
<path stroke-width="1" id="E1-MJMATHI-47" d="M50 252Q50 367 117 473T286 641T490 704Q580 704 633 653Q642 643 648 636T656 626L657 623Q660 623 684 649Q691 655 699 663T715 679T725 690L740 705H746Q760 705 760 698Q760 694 728 561Q692 422 692 421Q690 416 687 415T669 413H653Q647 419 647 422Q647 423 648 429T650 449T651 481Q651 552 619 605T510 659Q492 659 471 656T418 643T357 615T294 567T236 496T189 394T158 260Q156 242 156 221Q156 173 170 136T206 79T256 45T308 28T353 24Q407 24 452 47T514 106Q517 114 529 161T541 214Q541 222 528 224T468 227H431Q425 233 425 235T427 254Q431 267 437 273H454Q494 271 594 271Q634 271 659 271T695 272T707 272Q721 272 721 263Q721 261 719 249Q714 230 709 228Q706 227 694 227Q674 227 653 224Q646 221 643 215T629 164Q620 131 614 108Q589 6 586 3Q584 1 581 1Q571 1 553 21T530 52Q530 53 528 52T522 47Q448 -22 322 -22Q201 -22 126 55T50 252Z"></path>
<path stroke-width="1" id="E1-MJMATHI-6D" d="M21 287Q22 293 24 303T36 341T56 388T88 425T132 442T175 435T205 417T221 395T229 376L231 369Q231 367 232 367L243 378Q303 442 384 442Q401 442 415 440T441 433T460 423T475 411T485 398T493 385T497 373T500 364T502 357L510 367Q573 442 659 442Q713 442 746 415T780 336Q780 285 742 178T704 50Q705 36 709 31T724 26Q752 26 776 56T815 138Q818 149 821 151T837 153Q857 153 857 145Q857 144 853 130Q845 101 831 73T785 17T716 -10Q669 -10 648 17T627 73Q627 92 663 193T700 345Q700 404 656 404H651Q565 404 506 303L499 291L466 157Q433 26 428 16Q415 -11 385 -11Q372 -11 364 -4T353 8T350 18Q350 29 384 161L420 307Q423 322 423 345Q423 404 379 404H374Q288 404 229 303L222 291L189 157Q156 26 151 16Q138 -11 108 -11Q95 -11 87 -5T76 7T74 17Q74 30 112 181Q151 335 151 342Q154 357 154 369Q154 405 129 405Q107 405 92 377T69 316T57 280Q55 278 41 278H27Q21 284 21 287Z"></path>
<path stroke-width="1" id="E1-MJMAIN-32" d="M109 429Q82 429 66 447T50 491Q50 562 103 614T235 666Q326 666 387 610T449 465Q449 422 429 383T381 315T301 241Q265 210 201 149L142 93L218 92Q375 92 385 97Q392 99 409 186V189H449V186Q448 183 436 95T421 3V0H50V19V31Q50 38 56 46T86 81Q115 113 136 137Q145 147 170 174T204 211T233 244T261 278T284 308T305 340T320 369T333 401T340 431T343 464Q343 527 309 573T212 619Q179 619 154 602T119 569T109 550Q109 549 114 549Q132 549 151 535T170 489Q170 464 154 447T109 429Z"></path>
<path stroke-width="1" id="E1-MJMATHI-44" d="M287 628Q287 635 230 637Q207 637 200 638T193 647Q193 655 197 667T204 682Q206 683 403 683Q570 682 590 682T630 676Q702 659 752 597T803 431Q803 275 696 151T444 3L430 1L236 0H125H72Q48 0 41 2T33 11Q33 13 36 25Q40 41 44 43T67 46Q94 46 127 49Q141 52 146 61Q149 65 218 339T287 628ZM703 469Q703 507 692 537T666 584T629 613T590 629T555 636Q553 636 541 636T512 636T479 637H436Q392 637 386 627Q384 623 313 339T242 52Q242 48 253 48T330 47Q335 47 349 47T373 46Q499 46 581 128Q617 164 640 212T683 339T703 469Z"></path>
<path stroke-width="1" id="E1-MJMAIN-33" d="M127 463Q100 463 85 480T69 524Q69 579 117 622T233 665Q268 665 277 664Q351 652 390 611T430 522Q430 470 396 421T302 350L299 348Q299 347 308 345T337 336T375 315Q457 262 457 175Q457 96 395 37T238 -22Q158 -22 100 21T42 130Q42 158 60 175T105 193Q133 193 151 175T169 130Q169 119 166 110T159 94T148 82T136 74T126 70T118 67L114 66Q165 21 238 21Q293 21 321 74Q338 107 338 175V195Q338 290 274 322Q259 328 213 329L171 330L168 332Q166 335 166 348Q166 366 174 366Q202 366 232 371Q266 376 294 413T322 525V533Q322 590 287 612Q265 626 240 626Q208 626 181 615T143 592T132 580H135Q138 579 143 578T153 573T165 566T175 555T183 540T186 520Q186 498 172 481T127 463Z"></path>
<path stroke-width="1" id="E1-MJMATHI-4C" d="M228 637Q194 637 192 641Q191 643 191 649Q191 673 202 682Q204 683 217 683Q271 680 344 680Q485 680 506 683H518Q524 677 524 674T522 656Q517 641 513 637H475Q406 636 394 628Q387 624 380 600T313 336Q297 271 279 198T252 88L243 52Q243 48 252 48T311 46H328Q360 46 379 47T428 54T478 72T522 106T564 161Q580 191 594 228T611 270Q616 273 628 273H641Q647 264 647 262T627 203T583 83T557 9Q555 4 553 3T537 0T494 -1Q483 -1 418 -1T294 0H116Q32 0 32 10Q32 17 34 24Q39 43 44 45Q48 46 59 46H65Q92 46 125 49Q139 52 144 61Q147 65 216 339T285 628Q285 635 228 637Z"></path>
<path stroke-width="1" id="E1-MJMATHI-55" d="M107 637Q73 637 71 641Q70 643 70 649Q70 673 81 682Q83 683 98 683Q139 681 234 681Q268 681 297 681T342 682T362 682Q378 682 378 672Q378 670 376 658Q371 641 366 638H364Q362 638 359 638T352 638T343 637T334 637Q295 636 284 634T266 623Q265 621 238 518T184 302T154 169Q152 155 152 140Q152 86 183 55T269 24Q336 24 403 69T501 205L552 406Q599 598 599 606Q599 633 535 637Q511 637 511 648Q511 650 513 660Q517 676 519 679T529 683Q532 683 561 682T645 680Q696 680 723 681T752 682Q767 682 767 672Q767 650 759 642Q756 637 737 637Q666 633 648 597Q646 592 598 404Q557 235 548 205Q515 105 433 42T263 -22Q171 -22 116 34T60 167V183Q60 201 115 421Q164 622 164 628Q164 635 107 637Z"></path>
<path stroke-width="1" id="E1-MJMATHI-68" d="M137 683Q138 683 209 688T282 694Q294 694 294 685Q294 674 258 534Q220 386 220 383Q220 381 227 388Q288 442 357 442Q411 442 444 415T478 336Q478 285 440 178T402 50Q403 36 407 31T422 26Q450 26 474 56T513 138Q516 149 519 151T535 153Q555 153 555 145Q555 144 551 130Q535 71 500 33Q466 -10 419 -10H414Q367 -10 346 17T325 74Q325 90 361 192T398 345Q398 404 354 404H349Q266 404 205 306L198 293L164 158Q132 28 127 16Q114 -11 83 -11Q69 -11 59 -2T48 16Q48 30 121 320L195 616Q195 629 188 632T149 637H128Q122 643 122 645T124 664Q129 683 137 683Z"></path>
<path stroke-width="1" id="E1-MJMATHI-73" d="M131 289Q131 321 147 354T203 415T300 442Q362 442 390 415T419 355Q419 323 402 308T364 292Q351 292 340 300T328 326Q328 342 337 354T354 372T367 378Q368 378 368 379Q368 382 361 388T336 399T297 405Q249 405 227 379T204 326Q204 301 223 291T278 274T330 259Q396 230 396 163Q396 135 385 107T352 51T289 7T195 -10Q118 -10 86 19T53 87Q53 126 74 143T118 160Q133 160 146 151T160 120Q160 94 142 76T111 58Q109 57 108 57T107 55Q108 52 115 47T146 34T201 27Q237 27 263 38T301 66T318 97T323 122Q323 150 302 164T254 181T195 196T148 231Q131 256 131 289Z"></path>
<path stroke-width="1" id="E1-MJMATHI-6B" d="M121 647Q121 657 125 670T137 683Q138 683 209 688T282 694Q294 694 294 686Q294 679 244 477Q194 279 194 272Q213 282 223 291Q247 309 292 354T362 415Q402 442 438 442Q468 442 485 423T503 369Q503 344 496 327T477 302T456 291T438 288Q418 288 406 299T394 328Q394 353 410 369T442 390L458 393Q446 405 434 405H430Q398 402 367 380T294 316T228 255Q230 254 243 252T267 246T293 238T320 224T342 206T359 180T365 147Q365 130 360 106T354 66Q354 26 381 26Q429 26 459 145Q461 153 479 153H483Q499 153 499 144Q499 139 496 130Q455 -11 378 -11Q333 -11 305 15T277 90Q277 108 280 121T283 145Q283 167 269 183T234 206T200 217T182 220H180Q168 178 159 139T145 81T136 44T129 20T122 7T111 -2Q98 -11 83 -11Q66 -11 57 -1T48 16Q48 26 85 176T158 471L195 616Q196 629 188 632T149 637H144Q134 637 131 637T124 640T121 647Z"></path>
<path stroke-width="1" id="E1-MJMATHI-54" d="M40 437Q21 437 21 445Q21 450 37 501T71 602L88 651Q93 669 101 677H569H659Q691 677 697 676T704 667Q704 661 687 553T668 444Q668 437 649 437Q640 437 637 437T631 442L629 445Q629 451 635 490T641 551Q641 586 628 604T573 629Q568 630 515 631Q469 631 457 630T439 622Q438 621 368 343T298 60Q298 48 386 46Q418 46 427 45T436 36Q436 31 433 22Q429 4 424 1L422 0Q419 0 415 0Q410 0 363 1T228 2Q99 2 64 0H49Q43 6 43 9T45 27Q49 40 55 46H83H94Q174 46 189 55Q190 56 191 56Q196 59 201 76T241 233Q258 301 269 344Q339 619 339 625Q339 630 310 630H279Q212 630 191 624Q146 614 121 583T67 467Q60 445 57 441T43 437H40Z"></path>
<path stroke-width="1" id="E1-MJMATHI-48" d="M228 637Q194 637 192 641Q191 643 191 649Q191 673 202 682Q204 683 219 683Q260 681 355 681Q389 681 418 681T463 682T483 682Q499 682 499 672Q499 670 497 658Q492 641 487 638H485Q483 638 480 638T473 638T464 637T455 637Q416 636 405 634T387 623Q384 619 355 500Q348 474 340 442T328 395L324 380Q324 378 469 378H614L615 381Q615 384 646 504Q674 619 674 627T617 637Q594 637 587 639T580 648Q580 650 582 660Q586 677 588 679T604 682Q609 682 646 681T740 680Q802 680 835 681T871 682Q888 682 888 672Q888 645 876 638H874Q872 638 869 638T862 638T853 637T844 637Q805 636 794 634T776 623Q773 618 704 340T634 58Q634 51 638 51Q646 48 692 46H723Q729 38 729 37T726 19Q722 6 716 0H701Q664 2 567 2Q533 2 504 2T458 2T437 1Q420 1 420 10Q420 15 423 24Q428 43 433 45Q437 46 448 46H454Q481 46 514 49Q520 50 522 50T528 55T534 64T540 82T547 110T558 153Q565 181 569 198Q602 330 602 331T457 332H312L279 197Q245 63 245 58Q245 51 253 49T303 46H334Q340 38 340 37T337 19Q333 6 327 0H312Q275 2 178 2Q144 2 115 2T69 2T48 1Q31 1 31 10Q31 12 34 24Q39 43 44 45Q48 46 59 46H65Q92 46 125 49Q139 52 144 61Q147 65 216 339T285 628Q285 635 228 637Z"></path>
<path stroke-width="1" id="E1-MJMATHI-53" d="M308 24Q367 24 416 76T466 197Q466 260 414 284Q308 311 278 321T236 341Q176 383 176 462Q176 523 208 573T273 648Q302 673 343 688T407 704H418H425Q521 704 564 640Q565 640 577 653T603 682T623 704Q624 704 627 704T632 705Q645 705 645 698T617 577T585 459T569 456Q549 456 549 465Q549 471 550 475Q550 478 551 494T553 520Q553 554 544 579T526 616T501 641Q465 662 419 662Q362 662 313 616T263 510Q263 480 278 458T319 427Q323 425 389 408T456 390Q490 379 522 342T554 242Q554 216 546 186Q541 164 528 137T492 78T426 18T332 -20Q320 -22 298 -22Q199 -22 144 33L134 44L106 13Q83 -14 78 -18T65 -22Q52 -22 52 -14Q52 -11 110 221Q112 227 130 227H143Q149 221 149 216Q149 214 148 207T144 186T142 153Q144 114 160 87T203 47T255 29T308 24Z"></path>
<path stroke-width="1" id="E1-MJMATHI-56" d="M52 648Q52 670 65 683H76Q118 680 181 680Q299 680 320 683H330Q336 677 336 674T334 656Q329 641 325 637H304Q282 635 274 635Q245 630 242 620Q242 618 271 369T301 118L374 235Q447 352 520 471T595 594Q599 601 599 609Q599 633 555 637Q537 637 537 648Q537 649 539 661Q542 675 545 679T558 683Q560 683 570 683T604 682T668 681Q737 681 755 683H762Q769 676 769 672Q769 655 760 640Q757 637 743 637Q730 636 719 635T698 630T682 623T670 615T660 608T652 599T645 592L452 282Q272 -9 266 -16Q263 -18 259 -21L241 -22H234Q216 -22 216 -15Q213 -9 177 305Q139 623 138 626Q133 637 76 637H59Q52 642 52 648Z"></path>
<path stroke-width="1" id="E1-MJMATHI-51" d="M399 -80Q399 -47 400 -30T402 -11V-7L387 -11Q341 -22 303 -22Q208 -22 138 35T51 201Q50 209 50 244Q50 346 98 438T227 601Q351 704 476 704Q514 704 524 703Q621 689 680 617T740 435Q740 255 592 107Q529 47 461 16L444 8V3Q444 2 449 -24T470 -66T516 -82Q551 -82 583 -60T625 -3Q631 11 638 11Q647 11 649 2Q649 -6 639 -34T611 -100T557 -165T481 -194Q399 -194 399 -87V-80ZM636 468Q636 523 621 564T580 625T530 655T477 665Q429 665 379 640Q277 591 215 464T153 216Q153 110 207 59Q231 38 236 38V46Q236 86 269 120T347 155Q372 155 390 144T417 114T429 82T435 55L448 64Q512 108 557 185T619 334T636 468ZM314 18Q362 18 404 39L403 49Q399 104 366 115Q354 117 347 117Q344 117 341 117T337 118Q317 118 296 98T274 52Q274 18 314 18Z"></path>
<path stroke-width="1" id="E1-MJMATHI-52" d="M230 637Q203 637 198 638T193 649Q193 676 204 682Q206 683 378 683Q550 682 564 680Q620 672 658 652T712 606T733 563T739 529Q739 484 710 445T643 385T576 351T538 338L545 333Q612 295 612 223Q612 212 607 162T602 80V71Q602 53 603 43T614 25T640 16Q668 16 686 38T712 85Q717 99 720 102T735 105Q755 105 755 93Q755 75 731 36Q693 -21 641 -21H632Q571 -21 531 4T487 82Q487 109 502 166T517 239Q517 290 474 313Q459 320 449 321T378 323H309L277 193Q244 61 244 59Q244 55 245 54T252 50T269 48T302 46H333Q339 38 339 37T336 19Q332 6 326 0H311Q275 2 180 2Q146 2 117 2T71 2T50 1Q33 1 33 10Q33 12 36 24Q41 43 46 45Q50 46 61 46H67Q94 46 127 49Q141 52 146 61Q149 65 218 339T287 628Q287 635 230 637ZM630 554Q630 586 609 608T523 636Q521 636 500 636T462 637H440Q393 637 386 627Q385 624 352 494T319 361Q319 360 388 360Q466 361 492 367Q556 377 592 426Q608 449 619 486T630 554Z"></path>
<path stroke-width="1" id="E1-MJMATHI-76" d="M173 380Q173 405 154 405Q130 405 104 376T61 287Q60 286 59 284T58 281T56 279T53 278T49 278T41 278H27Q21 284 21 287Q21 294 29 316T53 368T97 419T160 441Q202 441 225 417T249 361Q249 344 246 335Q246 329 231 291T200 202T182 113Q182 86 187 69Q200 26 250 26Q287 26 319 60T369 139T398 222T409 277Q409 300 401 317T383 343T365 361T357 383Q357 405 376 424T417 443Q436 443 451 425T467 367Q467 340 455 284T418 159T347 40T241 -11Q177 -11 139 22Q102 54 102 117Q102 148 110 181T151 298Q173 362 173 380Z"></path>
<path stroke-width="1" id="E1-MJMATHI-70" d="M23 287Q24 290 25 295T30 317T40 348T55 381T75 411T101 433T134 442Q209 442 230 378L240 387Q302 442 358 442Q423 442 460 395T497 281Q497 173 421 82T249 -10Q227 -10 210 -4Q199 1 187 11T168 28L161 36Q160 35 139 -51T118 -138Q118 -144 126 -145T163 -148H188Q194 -155 194 -157T191 -175Q188 -187 185 -190T172 -194Q170 -194 161 -194T127 -193T65 -192Q-5 -192 -24 -194H-32Q-39 -187 -39 -183Q-37 -156 -26 -148H-6Q28 -147 33 -136Q36 -130 94 103T155 350Q156 355 156 364Q156 405 131 405Q109 405 94 377T71 316T59 280Q57 278 43 278H29Q23 284 23 287ZM178 102Q200 26 252 26Q282 26 310 49T356 107Q374 141 392 215T411 325V331Q411 405 350 405Q339 405 328 402T306 393T286 380T269 365T254 350T243 336T235 326L232 322Q232 321 229 308T218 264T204 212Q178 106 178 102Z"></path>
<path stroke-width="1" id="E1-MJMAIN-28" d="M94 250Q94 319 104 381T127 488T164 576T202 643T244 695T277 729T302 750H315H319Q333 750 333 741Q333 738 316 720T275 667T226 581T184 443T167 250T184 58T225 -81T274 -167T316 -220T333 -241Q333 -250 318 -250H315H302L274 -226Q180 -141 137 -14T94 250Z"></path>
<path stroke-width="1" id="E1-MJMAIN-29" d="M60 749L64 750Q69 750 74 750H86L114 726Q208 641 251 514T294 250Q294 182 284 119T261 12T224 -76T186 -143T145 -194T113 -227T90 -246Q87 -249 86 -250H74Q66 -250 63 -250T58 -247T55 -238Q56 -237 66 -225Q221 -64 221 250T66 725Q56 737 55 738Q55 746 60 749Z"></path>
</defs>
<g stroke="currentColor" fill="currentColor" stroke-width="0" transform="matrix(1 0 0 -1 0 0)">
<g transform="translate(167,0)">
<g transform="translate(389,0)">
<g transform="translate(1694,9338)">
<text font-family="monospace" stroke="none" transform="scale(71.759) matrix(1 0 0 -1 0 0)">模</text>
<g transform="translate(1148,0)">
<text font-family="monospace" stroke="none" transform="scale(71.759) matrix(1 0 0 -1 0 0)">版</text>
</g>
</g>
<g transform="translate(1760,7647)">
 <use xlink:href="#E1-MJMATHI-43" x="0" y="0"></use>
 <use xlink:href="#E1-MJMATHI-6F" x="760" y="0"></use>
 <use xlink:href="#E1-MJMATHI-72" x="1246" y="0"></use>
 <use xlink:href="#E1-MJMATHI-65" x="1697" y="0"></use>
</g>
<g transform="translate(645,5955)">
 <use xlink:href="#E1-MJMATHI-47" x="0" y="0"></use>
 <use xlink:href="#E1-MJMATHI-65" x="786" y="0"></use>
 <use xlink:href="#E1-MJMATHI-6F" x="1253" y="0"></use>
 <use xlink:href="#E1-MJMATHI-6D" x="1738" y="0"></use>
 <use xlink:href="#E1-MJMATHI-65" x="2617" y="0"></use>
 <use xlink:href="#E1-MJMATHI-74" x="3083" y="0"></use>
 <use xlink:href="#E1-MJMATHI-72" x="3445" y="0"></use>
 <use xlink:href="#E1-MJMATHI-79" x="3896" y="0"></use>
</g>
<g transform="translate(2117,4263)">
 <use xlink:href="#E1-MJMATHI-4C" x="0" y="0"></use>
 <use xlink:href="#E1-MJMATHI-55" x="681" y="0"></use>
</g>
<g transform="translate(804,2572)">
 <use xlink:href="#E1-MJMATHI-43" x="0" y="0"></use>
 <use xlink:href="#E1-MJMATHI-68" x="760" y="0"></use>
 <use xlink:href="#E1-MJMATHI-6F" x="1337" y="0"></use>
 <use xlink:href="#E1-MJMATHI-6C" x="1822" y="0"></use>
 <use xlink:href="#E1-MJMATHI-65" x="2121" y="0"></use>
 <use xlink:href="#E1-MJMATHI-73" x="2587" y="0"></use>
 <use xlink:href="#E1-MJMATHI-6B" x="3057" y="0"></use>
 <use xlink:href="#E1-MJMATHI-79" x="3578" y="0"></use>
</g>
<g transform="translate(0,880)">
 <use xlink:href="#E1-MJMATHI-48" x="0" y="0"></use>
 <use xlink:href="#E1-MJMATHI-6F" x="888" y="0"></use>
 <use xlink:href="#E1-MJMATHI-75" x="1374" y="0"></use>
 <use xlink:href="#E1-MJMATHI-73" x="1946" y="0"></use>
 <use xlink:href="#E1-MJMATHI-65" x="2416" y="0"></use>
 <use xlink:href="#E1-MJMATHI-68" x="2882" y="0"></use>
 <use xlink:href="#E1-MJMATHI-6F" x="3459" y="0"></use>
 <use xlink:href="#E1-MJMATHI-6C" x="3944" y="0"></use>
 <use xlink:href="#E1-MJMATHI-64" x="4243" y="0"></use>
 <use xlink:href="#E1-MJMATHI-65" x="4766" y="0"></use>
 <use xlink:href="#E1-MJMATHI-72" x="5233" y="0"></use>
</g>
<g transform="translate(1720,-812)">
 <use xlink:href="#E1-MJMATHI-53" x="0" y="0"></use>
 <use xlink:href="#E1-MJMATHI-56" x="645" y="0"></use>
 <use xlink:href="#E1-MJMATHI-44" x="1415" y="0"></use>
</g>
<g transform="translate(2066,-2503)">
 <use xlink:href="#E1-MJMATHI-51" x="0" y="0"></use>
 <use xlink:href="#E1-MJMATHI-52" x="791" y="0"></use>
</g>
<g transform="translate(102,-4195)">
 <use xlink:href="#E1-MJMATHI-45" x="0" y="0"></use>
 <use xlink:href="#E1-MJMATHI-69" x="764" y="0"></use>
 <use xlink:href="#E1-MJMATHI-67" x="1110" y="0"></use>
 <use xlink:href="#E1-MJMATHI-65" x="1590" y="0"></use>
 <use xlink:href="#E1-MJMATHI-6E" x="2057" y="0"></use>
 <use xlink:href="#E1-MJMATHI-76" x="2657" y="0"></use>
 <use xlink:href="#E1-MJMATHI-61" x="3143" y="0"></use>
 <use xlink:href="#E1-MJMATHI-6C" x="3672" y="0"></use>
 <use xlink:href="#E1-MJMATHI-75" x="3971" y="0"></use>
 <use xlink:href="#E1-MJMATHI-65" x="4543" y="0"></use>
 <use xlink:href="#E1-MJMATHI-73" x="5010" y="0"></use>
</g>
<g transform="translate(1309,-5887)">
 <use xlink:href="#E1-MJMATHI-53" x="0" y="0"></use>
 <use xlink:href="#E1-MJMATHI-70" x="645" y="0"></use>
 <use xlink:href="#E1-MJMATHI-61" x="1149" y="0"></use>
 <use xlink:href="#E1-MJMATHI-72" x="1678" y="0"></use>
 <use xlink:href="#E1-MJMATHI-73" x="2130" y="0"></use>
 <use xlink:href="#E1-MJMATHI-65" x="2599" y="0"></use>
</g>
<g transform="translate(1426,-7578)">
 <use xlink:href="#E1-MJMATHI-44" x="0" y="0"></use>
 <use xlink:href="#E1-MJMATHI-65" x="828" y="0"></use>
 <use xlink:href="#E1-MJMATHI-6E" x="1295" y="0"></use>
 <use xlink:href="#E1-MJMATHI-73" x="1895" y="0"></use>
 <use xlink:href="#E1-MJMATHI-65" x="2365" y="0"></use>
</g>
<g transform="translate(1513,-9270)">
 <use xlink:href="#E1-MJMATHI-45" x="0" y="0"></use>
 <use xlink:href="#E1-MJMATHI-69" x="764" y="0"></use>
 <use xlink:href="#E1-MJMATHI-67" x="1110" y="0"></use>
 <use xlink:href="#E1-MJMATHI-65" x="1590" y="0"></use>
 <use xlink:href="#E1-MJMATHI-6E" x="2057" y="0"></use>
</g>
</g>
<line stroke-linecap="square" stroke-width="20.9" y1="10" x2="10" x1="10" y2="20320" transform="translate(6574,-9916)"></line>
<g transform="translate(7074,0)">
<g transform="translate(5931,9338)">
<text font-family="monospace" stroke="none" transform="scale(71.759) matrix(1 0 0 -1 0 0)">头</text>
<g transform="translate(1148,0)">
<text font-family="monospace" stroke="none" transform="scale(71.759) matrix(1 0 0 -1 0 0)">文</text>
</g>
<g transform="translate(2296,0)">
<text font-family="monospace" stroke="none" transform="scale(71.759) matrix(1 0 0 -1 0 0)">件</text>
</g>
</g>
<g transform="translate(1760,7647)">
 <use xlink:href="#E1-MJMAIN-23" x="0" y="0"></use>
 <use xlink:href="#E1-MJMATHI-69" x="833" y="0"></use>
 <use xlink:href="#E1-MJMATHI-6E" x="1179" y="0"></use>
 <use xlink:href="#E1-MJMATHI-63" x="1779" y="0"></use>
 <use xlink:href="#E1-MJMATHI-6C" x="2213" y="0"></use>
 <use xlink:href="#E1-MJMATHI-75" x="2511" y="0"></use>
 <use xlink:href="#E1-MJMATHI-64" x="3084" y="0"></use>
 <use xlink:href="#E1-MJMATHI-65" x="3607" y="0"></use>
 <use xlink:href="#E1-MJMAIN-3C" x="4351" y="0"></use>
 <use xlink:href="#E1-MJMATHI-45" x="5408" y="0"></use>
 <use xlink:href="#E1-MJMATHI-69" x="6172" y="0"></use>
 <use xlink:href="#E1-MJMATHI-67" x="6518" y="0"></use>
 <use xlink:href="#E1-MJMATHI-65" x="6998" y="0"></use>
 <use xlink:href="#E1-MJMATHI-6E" x="7465" y="0"></use>
 <use xlink:href="#E1-MJMAIN-2F" x="8065" y="0"></use>
 <use xlink:href="#E1-MJMATHI-43" x="8566" y="0"></use>
 <use xlink:href="#E1-MJMATHI-6F" x="9326" y="0"></use>
 <use xlink:href="#E1-MJMATHI-72" x="9812" y="0"></use>
 <use xlink:href="#E1-MJMATHI-65" x="10263" y="0"></use>
 <use xlink:href="#E1-MJMAIN-3E" x="11007" y="0"></use>
</g>
<g transform="translate(645,5955)">
 <use xlink:href="#E1-MJMAIN-23" x="0" y="0"></use>
 <use xlink:href="#E1-MJMATHI-69" x="833" y="0"></use>
 <use xlink:href="#E1-MJMATHI-6E" x="1179" y="0"></use>
 <use xlink:href="#E1-MJMATHI-63" x="1779" y="0"></use>
 <use xlink:href="#E1-MJMATHI-6C" x="2213" y="0"></use>
 <use xlink:href="#E1-MJMATHI-75" x="2511" y="0"></use>
 <use xlink:href="#E1-MJMATHI-64" x="3084" y="0"></use>
 <use xlink:href="#E1-MJMATHI-65" x="3607" y="0"></use>
 <use xlink:href="#E1-MJMAIN-3C" x="4351" y="0"></use>
 <use xlink:href="#E1-MJMATHI-45" x="5408" y="0"></use>
 <use xlink:href="#E1-MJMATHI-69" x="6172" y="0"></use>
 <use xlink:href="#E1-MJMATHI-67" x="6518" y="0"></use>
 <use xlink:href="#E1-MJMATHI-65" x="6998" y="0"></use>
 <use xlink:href="#E1-MJMATHI-6E" x="7465" y="0"></use>
 <use xlink:href="#E1-MJMAIN-2F" x="8065" y="0"></use>
 <use xlink:href="#E1-MJMATHI-47" x="8566" y="0"></use>
 <use xlink:href="#E1-MJMATHI-65" x="9352" y="0"></use>
 <use xlink:href="#E1-MJMATHI-6F" x="9819" y="0"></use>
 <use xlink:href="#E1-MJMATHI-6D" x="10304" y="0"></use>
 <use xlink:href="#E1-MJMATHI-65" x="11183" y="0"></use>
 <use xlink:href="#E1-MJMATHI-74" x="11649" y="0"></use>
 <use xlink:href="#E1-MJMATHI-72" x="12011" y="0"></use>
 <use xlink:href="#E1-MJMATHI-79" x="12462" y="0"></use>
 <use xlink:href="#E1-MJMAIN-3E" x="13237" y="0"></use>
</g>
<g transform="translate(2117,4263)">
 <use xlink:href="#E1-MJMAIN-23" x="0" y="0"></use>
 <use xlink:href="#E1-MJMATHI-69" x="833" y="0"></use>
 <use xlink:href="#E1-MJMATHI-6E" x="1179" y="0"></use>
 <use xlink:href="#E1-MJMATHI-63" x="1779" y="0"></use>
 <use xlink:href="#E1-MJMATHI-6C" x="2213" y="0"></use>
 <use xlink:href="#E1-MJMATHI-75" x="2511" y="0"></use>
 <use xlink:href="#E1-MJMATHI-64" x="3084" y="0"></use>
 <use xlink:href="#E1-MJMATHI-65" x="3607" y="0"></use>
 <use xlink:href="#E1-MJMAIN-3C" x="4351" y="0"></use>
 <use xlink:href="#E1-MJMATHI-45" x="5408" y="0"></use>
 <use xlink:href="#E1-MJMATHI-69" x="6172" y="0"></use>
 <use xlink:href="#E1-MJMATHI-67" x="6518" y="0"></use>
 <use xlink:href="#E1-MJMATHI-65" x="6998" y="0"></use>
 <use xlink:href="#E1-MJMATHI-6E" x="7465" y="0"></use>
 <use xlink:href="#E1-MJMAIN-2F" x="8065" y="0"></use>
 <use xlink:href="#E1-MJMATHI-4C" x="8566" y="0"></use>
 <use xlink:href="#E1-MJMATHI-55" x="9247" y="0"></use>
 <use xlink:href="#E1-MJMAIN-3E" x="10292" y="0"></use>
</g>
<g transform="translate(804,2572)">
 <use xlink:href="#E1-MJMAIN-23" x="0" y="0"></use>
 <use xlink:href="#E1-MJMATHI-69" x="833" y="0"></use>
 <use xlink:href="#E1-MJMATHI-6E" x="1179" y="0"></use>
 <use xlink:href="#E1-MJMATHI-63" x="1779" y="0"></use>
 <use xlink:href="#E1-MJMATHI-6C" x="2213" y="0"></use>
 <use xlink:href="#E1-MJMATHI-75" x="2511" y="0"></use>
 <use xlink:href="#E1-MJMATHI-64" x="3084" y="0"></use>
 <use xlink:href="#E1-MJMATHI-65" x="3607" y="0"></use>
 <use xlink:href="#E1-MJMAIN-3C" x="4351" y="0"></use>
 <use xlink:href="#E1-MJMATHI-45" x="5408" y="0"></use>
 <use xlink:href="#E1-MJMATHI-69" x="6172" y="0"></use>
 <use xlink:href="#E1-MJMATHI-67" x="6518" y="0"></use>
 <use xlink:href="#E1-MJMATHI-65" x="6998" y="0"></use>
 <use xlink:href="#E1-MJMATHI-6E" x="7465" y="0"></use>
 <use xlink:href="#E1-MJMAIN-2F" x="8065" y="0"></use>
 <use xlink:href="#E1-MJMATHI-43" x="8566" y="0"></use>
 <use xlink:href="#E1-MJMATHI-68" x="9326" y="0"></use>
 <use xlink:href="#E1-MJMATHI-6F" x="9903" y="0"></use>
 <use xlink:href="#E1-MJMATHI-6C" x="10388" y="0"></use>
 <use xlink:href="#E1-MJMATHI-65" x="10687" y="0"></use>
 <use xlink:href="#E1-MJMATHI-73" x="11153" y="0"></use>
 <use xlink:href="#E1-MJMATHI-6B" x="11623" y="0"></use>
 <use xlink:href="#E1-MJMATHI-79" x="12144" y="0"></use>
 <use xlink:href="#E1-MJMAIN-3E" x="12919" y="0"></use>
</g>
<g transform="translate(0,880)">
 <use xlink:href="#E1-MJMAIN-23" x="0" y="0"></use>
 <use xlink:href="#E1-MJMATHI-69" x="833" y="0"></use>
 <use xlink:href="#E1-MJMATHI-6E" x="1179" y="0"></use>
 <use xlink:href="#E1-MJMATHI-63" x="1779" y="0"></use>
 <use xlink:href="#E1-MJMATHI-6C" x="2213" y="0"></use>
 <use xlink:href="#E1-MJMATHI-75" x="2511" y="0"></use>
 <use xlink:href="#E1-MJMATHI-64" x="3084" y="0"></use>
 <use xlink:href="#E1-MJMATHI-65" x="3607" y="0"></use>
 <use xlink:href="#E1-MJMAIN-3C" x="4351" y="0"></use>
 <use xlink:href="#E1-MJMATHI-45" x="5408" y="0"></use>
 <use xlink:href="#E1-MJMATHI-69" x="6172" y="0"></use>
 <use xlink:href="#E1-MJMATHI-67" x="6518" y="0"></use>
 <use xlink:href="#E1-MJMATHI-65" x="6998" y="0"></use>
 <use xlink:href="#E1-MJMATHI-6E" x="7465" y="0"></use>
 <use xlink:href="#E1-MJMAIN-2F" x="8065" y="0"></use>
 <use xlink:href="#E1-MJMATHI-48" x="8566" y="0"></use>
 <use xlink:href="#E1-MJMATHI-6F" x="9454" y="0"></use>
 <use xlink:href="#E1-MJMATHI-75" x="9940" y="0"></use>
 <use xlink:href="#E1-MJMATHI-73" x="10512" y="0"></use>
 <use xlink:href="#E1-MJMATHI-65" x="10982" y="0"></use>
 <use xlink:href="#E1-MJMATHI-68" x="11448" y="0"></use>
 <use xlink:href="#E1-MJMATHI-6F" x="12025" y="0"></use>
 <use xlink:href="#E1-MJMATHI-6C" x="12510" y="0"></use>
 <use xlink:href="#E1-MJMATHI-64" x="12809" y="0"></use>
 <use xlink:href="#E1-MJMATHI-65" x="13332" y="0"></use>
 <use xlink:href="#E1-MJMATHI-72" x="13799" y="0"></use>
 <use xlink:href="#E1-MJMAIN-3E" x="14528" y="0"></use>
</g>
<g transform="translate(1720,-812)">
 <use xlink:href="#E1-MJMAIN-23" x="0" y="0"></use>
 <use xlink:href="#E1-MJMATHI-69" x="833" y="0"></use>
 <use xlink:href="#E1-MJMATHI-6E" x="1179" y="0"></use>
 <use xlink:href="#E1-MJMATHI-63" x="1779" y="0"></use>
 <use xlink:href="#E1-MJMATHI-6C" x="2213" y="0"></use>
 <use xlink:href="#E1-MJMATHI-75" x="2511" y="0"></use>
 <use xlink:href="#E1-MJMATHI-64" x="3084" y="0"></use>
 <use xlink:href="#E1-MJMATHI-65" x="3607" y="0"></use>
 <use xlink:href="#E1-MJMAIN-3C" x="4351" y="0"></use>
 <use xlink:href="#E1-MJMATHI-45" x="5408" y="0"></use>
 <use xlink:href="#E1-MJMATHI-69" x="6172" y="0"></use>
 <use xlink:href="#E1-MJMATHI-67" x="6518" y="0"></use>
 <use xlink:href="#E1-MJMATHI-65" x="6998" y="0"></use>
 <use xlink:href="#E1-MJMATHI-6E" x="7465" y="0"></use>
 <use xlink:href="#E1-MJMAIN-2F" x="8065" y="0"></use>
 <use xlink:href="#E1-MJMATHI-53" x="8566" y="0"></use>
 <use xlink:href="#E1-MJMATHI-56" x="9211" y="0"></use>
 <use xlink:href="#E1-MJMATHI-44" x="9981" y="0"></use>
 <use xlink:href="#E1-MJMAIN-3E" x="11087" y="0"></use>
</g>
<g transform="translate(2066,-2503)">
 <use xlink:href="#E1-MJMAIN-23" x="0" y="0"></use>
 <use xlink:href="#E1-MJMATHI-69" x="833" y="0"></use>
 <use xlink:href="#E1-MJMATHI-6E" x="1179" y="0"></use>
 <use xlink:href="#E1-MJMATHI-63" x="1779" y="0"></use>
 <use xlink:href="#E1-MJMATHI-6C" x="2213" y="0"></use>
 <use xlink:href="#E1-MJMATHI-75" x="2511" y="0"></use>
 <use xlink:href="#E1-MJMATHI-64" x="3084" y="0"></use>
 <use xlink:href="#E1-MJMATHI-65" x="3607" y="0"></use>
 <use xlink:href="#E1-MJMAIN-3C" x="4351" y="0"></use>
 <use xlink:href="#E1-MJMATHI-45" x="5408" y="0"></use>
 <use xlink:href="#E1-MJMATHI-69" x="6172" y="0"></use>
 <use xlink:href="#E1-MJMATHI-67" x="6518" y="0"></use>
 <use xlink:href="#E1-MJMATHI-65" x="6998" y="0"></use>
 <use xlink:href="#E1-MJMATHI-6E" x="7465" y="0"></use>
 <use xlink:href="#E1-MJMAIN-2F" x="8065" y="0"></use>
 <use xlink:href="#E1-MJMATHI-51" x="8566" y="0"></use>
 <use xlink:href="#E1-MJMATHI-52" x="9357" y="0"></use>
 <use xlink:href="#E1-MJMAIN-3E" x="10394" y="0"></use>
</g>
<g transform="translate(102,-4195)">
 <use xlink:href="#E1-MJMAIN-23" x="0" y="0"></use>
 <use xlink:href="#E1-MJMATHI-69" x="833" y="0"></use>
 <use xlink:href="#E1-MJMATHI-6E" x="1179" y="0"></use>
 <use xlink:href="#E1-MJMATHI-63" x="1779" y="0"></use>
 <use xlink:href="#E1-MJMATHI-6C" x="2213" y="0"></use>
 <use xlink:href="#E1-MJMATHI-75" x="2511" y="0"></use>
 <use xlink:href="#E1-MJMATHI-64" x="3084" y="0"></use>
 <use xlink:href="#E1-MJMATHI-65" x="3607" y="0"></use>
 <use xlink:href="#E1-MJMAIN-3C" x="4351" y="0"></use>
 <use xlink:href="#E1-MJMATHI-45" x="5408" y="0"></use>
 <use xlink:href="#E1-MJMATHI-69" x="6172" y="0"></use>
 <use xlink:href="#E1-MJMATHI-67" x="6518" y="0"></use>
 <use xlink:href="#E1-MJMATHI-65" x="6998" y="0"></use>
 <use xlink:href="#E1-MJMATHI-6E" x="7465" y="0"></use>
 <use xlink:href="#E1-MJMAIN-2F" x="8065" y="0"></use>
 <use xlink:href="#E1-MJMATHI-45" x="8566" y="0"></use>
 <use xlink:href="#E1-MJMATHI-69" x="9330" y="0"></use>
 <use xlink:href="#E1-MJMATHI-67" x="9676" y="0"></use>
 <use xlink:href="#E1-MJMATHI-65" x="10156" y="0"></use>
 <use xlink:href="#E1-MJMATHI-6E" x="10623" y="0"></use>
 <use xlink:href="#E1-MJMATHI-76" x="11223" y="0"></use>
 <use xlink:href="#E1-MJMATHI-61" x="11709" y="0"></use>
 <use xlink:href="#E1-MJMATHI-6C" x="12238" y="0"></use>
 <use xlink:href="#E1-MJMATHI-75" x="12537" y="0"></use>
 <use xlink:href="#E1-MJMATHI-65" x="13109" y="0"></use>
 <use xlink:href="#E1-MJMATHI-73" x="13576" y="0"></use>
 <use xlink:href="#E1-MJMAIN-3E" x="14323" y="0"></use>
</g>
<g transform="translate(1309,-5887)">
 <use xlink:href="#E1-MJMAIN-23" x="0" y="0"></use>
 <use xlink:href="#E1-MJMATHI-69" x="833" y="0"></use>
 <use xlink:href="#E1-MJMATHI-6E" x="1179" y="0"></use>
 <use xlink:href="#E1-MJMATHI-63" x="1779" y="0"></use>
 <use xlink:href="#E1-MJMATHI-6C" x="2213" y="0"></use>
 <use xlink:href="#E1-MJMATHI-75" x="2511" y="0"></use>
 <use xlink:href="#E1-MJMATHI-64" x="3084" y="0"></use>
 <use xlink:href="#E1-MJMATHI-65" x="3607" y="0"></use>
 <use xlink:href="#E1-MJMAIN-3C" x="4351" y="0"></use>
 <use xlink:href="#E1-MJMATHI-45" x="5408" y="0"></use>
 <use xlink:href="#E1-MJMATHI-69" x="6172" y="0"></use>
 <use xlink:href="#E1-MJMATHI-67" x="6518" y="0"></use>
 <use xlink:href="#E1-MJMATHI-65" x="6998" y="0"></use>
 <use xlink:href="#E1-MJMATHI-6E" x="7465" y="0"></use>
 <use xlink:href="#E1-MJMAIN-2F" x="8065" y="0"></use>
 <use xlink:href="#E1-MJMATHI-53" x="8566" y="0"></use>
 <use xlink:href="#E1-MJMATHI-70" x="9211" y="0"></use>
 <use xlink:href="#E1-MJMATHI-61" x="9715" y="0"></use>
 <use xlink:href="#E1-MJMATHI-72" x="10244" y="0"></use>
 <use xlink:href="#E1-MJMATHI-73" x="10696" y="0"></use>
 <use xlink:href="#E1-MJMATHI-65" x="11165" y="0"></use>
 <use xlink:href="#E1-MJMAIN-3E" x="11909" y="0"></use>
</g>
<g transform="translate(1426,-7578)">
 <use xlink:href="#E1-MJMAIN-23" x="0" y="0"></use>
 <use xlink:href="#E1-MJMATHI-69" x="833" y="0"></use>
 <use xlink:href="#E1-MJMATHI-6E" x="1179" y="0"></use>
 <use xlink:href="#E1-MJMATHI-63" x="1779" y="0"></use>
 <use xlink:href="#E1-MJMATHI-6C" x="2213" y="0"></use>
 <use xlink:href="#E1-MJMATHI-75" x="2511" y="0"></use>
 <use xlink:href="#E1-MJMATHI-64" x="3084" y="0"></use>
 <use xlink:href="#E1-MJMATHI-65" x="3607" y="0"></use>
 <use xlink:href="#E1-MJMAIN-3C" x="4351" y="0"></use>
 <use xlink:href="#E1-MJMATHI-45" x="5408" y="0"></use>
 <use xlink:href="#E1-MJMATHI-69" x="6172" y="0"></use>
 <use xlink:href="#E1-MJMATHI-67" x="6518" y="0"></use>
 <use xlink:href="#E1-MJMATHI-65" x="6998" y="0"></use>
 <use xlink:href="#E1-MJMATHI-6E" x="7465" y="0"></use>
 <use xlink:href="#E1-MJMAIN-2F" x="8065" y="0"></use>
 <use xlink:href="#E1-MJMATHI-44" x="8566" y="0"></use>
 <use xlink:href="#E1-MJMATHI-65" x="9394" y="0"></use>
 <use xlink:href="#E1-MJMATHI-6E" x="9861" y="0"></use>
 <use xlink:href="#E1-MJMATHI-73" x="10461" y="0"></use>
 <use xlink:href="#E1-MJMATHI-65" x="10931" y="0"></use>
 <use xlink:href="#E1-MJMAIN-3E" x="11675" y="0"></use>
</g>
<g transform="translate(1513,-9270)">
 <use xlink:href="#E1-MJMAIN-23" x="0" y="0"></use>
 <use xlink:href="#E1-MJMATHI-69" x="833" y="0"></use>
 <use xlink:href="#E1-MJMATHI-6E" x="1179" y="0"></use>
 <use xlink:href="#E1-MJMATHI-63" x="1779" y="0"></use>
 <use xlink:href="#E1-MJMATHI-6C" x="2213" y="0"></use>
 <use xlink:href="#E1-MJMATHI-75" x="2511" y="0"></use>
 <use xlink:href="#E1-MJMATHI-64" x="3084" y="0"></use>
 <use xlink:href="#E1-MJMATHI-65" x="3607" y="0"></use>
 <use xlink:href="#E1-MJMAIN-3C" x="4351" y="0"></use>
 <use xlink:href="#E1-MJMATHI-45" x="5408" y="0"></use>
 <use xlink:href="#E1-MJMATHI-69" x="6172" y="0"></use>
 <use xlink:href="#E1-MJMATHI-67" x="6518" y="0"></use>
 <use xlink:href="#E1-MJMATHI-65" x="6998" y="0"></use>
 <use xlink:href="#E1-MJMATHI-6E" x="7465" y="0"></use>
 <use xlink:href="#E1-MJMAIN-2F" x="8065" y="0"></use>
 <use xlink:href="#E1-MJMATHI-45" x="8566" y="0"></use>
 <use xlink:href="#E1-MJMATHI-69" x="9330" y="0"></use>
 <use xlink:href="#E1-MJMATHI-67" x="9676" y="0"></use>
 <use xlink:href="#E1-MJMATHI-65" x="10156" y="0"></use>
 <use xlink:href="#E1-MJMATHI-6E" x="10623" y="0"></use>
 <use xlink:href="#E1-MJMAIN-3E" x="11501" y="0"></use>
</g>
</g>
<line stroke-linecap="square" stroke-width="20.9" y1="10" x2="10" x1="10" y2="20320" transform="translate(22880,-9916)"></line>
<g transform="translate(23380,0)">
<g transform="translate(13902,9338)">
<text font-family="monospace" stroke="none" transform="scale(71.759) matrix(1 0 0 -1 0 0)">功</text>
<g transform="translate(1148,0)">
<text font-family="monospace" stroke="none" transform="scale(71.759) matrix(1 0 0 -1 0 0)">能</text>
</g>
</g>
<g transform="translate(2294,7647)">
 <use xlink:href="#E1-MJMATHI-4D" x="0" y="0"></use>
 <use xlink:href="#E1-MJMATHI-61" x="1051" y="0"></use>
 <use xlink:href="#E1-MJMATHI-74" x="1581" y="0"></use>
 <use xlink:href="#E1-MJMATHI-72" x="1942" y="0"></use>
 <use xlink:href="#E1-MJMATHI-69" x="2394" y="0"></use>
 <use xlink:href="#E1-MJMATHI-78" x="2739" y="0"></use>
<g transform="translate(3312,0)">
<text font-family="monospace" stroke="none" transform="scale(71.759) matrix(1 0 0 -1 0 0)">和</text>
</g>
 <use xlink:href="#E1-MJMATHI-41" x="4460" y="0"></use>
 <use xlink:href="#E1-MJMATHI-72" x="5210" y="0"></use>
 <use xlink:href="#E1-MJMATHI-72" x="5662" y="0"></use>
 <use xlink:href="#E1-MJMATHI-61" x="6113" y="0"></use>
 <use xlink:href="#E1-MJMATHI-79" x="6643" y="0"></use>
<g transform="translate(7140,0)">
<text font-family="monospace" stroke="none" transform="scale(71.759) matrix(1 0 0 -1 0 0)">类</text>
</g>
<g transform="translate(8288,0)">
<text font-family="monospace" stroke="none" transform="scale(71.759) matrix(1 0 0 -1 0 0)">，</text>
</g>
<g transform="translate(9436,0)">
<text font-family="monospace" stroke="none" transform="scale(71.759) matrix(1 0 0 -1 0 0)">基</text>
</g>
<g transform="translate(10585,0)">
<text font-family="monospace" stroke="none" transform="scale(71.759) matrix(1 0 0 -1 0 0)">础</text>
</g>
<g transform="translate(11733,0)">
<text font-family="monospace" stroke="none" transform="scale(71.759) matrix(1 0 0 -1 0 0)">的</text>
</g>
<g transform="translate(12881,0)">
<text font-family="monospace" stroke="none" transform="scale(71.759) matrix(1 0 0 -1 0 0)">线</text>
</g>
<g transform="translate(14029,0)">
<text font-family="monospace" stroke="none" transform="scale(71.759) matrix(1 0 0 -1 0 0)">性</text>
</g>
<g transform="translate(15177,0)">
<text font-family="monospace" stroke="none" transform="scale(71.759) matrix(1 0 0 -1 0 0)">代</text>
</g>
<g transform="translate(16325,0)">
<text font-family="monospace" stroke="none" transform="scale(71.759) matrix(1 0 0 -1 0 0)">数</text>
</g>
<g transform="translate(17473,0)">
<text font-family="monospace" stroke="none" transform="scale(71.759) matrix(1 0 0 -1 0 0)">运</text>
</g>
<g transform="translate(18622,0)">
<text font-family="monospace" stroke="none" transform="scale(71.759) matrix(1 0 0 -1 0 0)">算</text>
</g>
<g transform="translate(19770,0)">
<text font-family="monospace" stroke="none" transform="scale(71.759) matrix(1 0 0 -1 0 0)">和</text>
</g>
<g transform="translate(20918,0)">
<text font-family="monospace" stroke="none" transform="scale(71.759) matrix(1 0 0 -1 0 0)">数</text>
</g>
<g transform="translate(22066,0)">
<text font-family="monospace" stroke="none" transform="scale(71.759) matrix(1 0 0 -1 0 0)">组</text>
</g>
<g transform="translate(23214,0)">
<text font-family="monospace" stroke="none" transform="scale(71.759) matrix(1 0 0 -1 0 0)">操</text>
</g>
<g transform="translate(24362,0)">
<text font-family="monospace" stroke="none" transform="scale(71.759) matrix(1 0 0 -1 0 0)">作</text>
</g>
</g>
<g transform="translate(5110,5955)">
<text font-family="monospace" stroke="none" transform="scale(71.759) matrix(1 0 0 -1 0 0)">旋</text>
<g transform="translate(1148,0)">
<text font-family="monospace" stroke="none" transform="scale(71.759) matrix(1 0 0 -1 0 0)">转</text>
</g>
<g transform="translate(2296,0)">
<text font-family="monospace" stroke="none" transform="scale(71.759) matrix(1 0 0 -1 0 0)">、</text>
</g>
<g transform="translate(3444,0)">
<text font-family="monospace" stroke="none" transform="scale(71.759) matrix(1 0 0 -1 0 0)">平</text>
</g>
<g transform="translate(4592,0)">
<text font-family="monospace" stroke="none" transform="scale(71.759) matrix(1 0 0 -1 0 0)">移</text>
</g>
<g transform="translate(5740,0)">
<text font-family="monospace" stroke="none" transform="scale(71.759) matrix(1 0 0 -1 0 0)">、</text>
</g>
<g transform="translate(6888,0)">
<text font-family="monospace" stroke="none" transform="scale(71.759) matrix(1 0 0 -1 0 0)">缩</text>
</g>
<g transform="translate(8037,0)">
<text font-family="monospace" stroke="none" transform="scale(71.759) matrix(1 0 0 -1 0 0)">放</text>
</g>
<g transform="translate(9185,0)">
<text font-family="monospace" stroke="none" transform="scale(71.759) matrix(1 0 0 -1 0 0)">、</text>
</g>
 <use xlink:href="#E1-MJMAIN-32" x="10333" y="0"></use>
 <use xlink:href="#E1-MJMATHI-44" x="10833" y="0"></use>
<g transform="translate(11662,0)">
<text font-family="monospace" stroke="none" transform="scale(71.759) matrix(1 0 0 -1 0 0)">和</text>
</g>
 <use xlink:href="#E1-MJMAIN-33" x="12810" y="0"></use>
 <use xlink:href="#E1-MJMATHI-44" x="13310" y="0"></use>
<g transform="translate(14139,0)">
<text font-family="monospace" stroke="none" transform="scale(71.759) matrix(1 0 0 -1 0 0)">的</text>
</g>
<g transform="translate(15287,0)">
<text font-family="monospace" stroke="none" transform="scale(71.759) matrix(1 0 0 -1 0 0)">各</text>
</g>
<g transform="translate(16435,0)">
<text font-family="monospace" stroke="none" transform="scale(71.759) matrix(1 0 0 -1 0 0)">种</text>
</g>
<g transform="translate(17583,0)">
<text font-family="monospace" stroke="none" transform="scale(71.759) matrix(1 0 0 -1 0 0)">变</text>
</g>
<g transform="translate(18732,0)">
<text font-family="monospace" stroke="none" transform="scale(71.759) matrix(1 0 0 -1 0 0)">换</text>
</g>
</g>
<g transform="translate(9159,4263)">
<text font-family="monospace" stroke="none" transform="scale(71.759) matrix(1 0 0 -1 0 0)">求</text>
<g transform="translate(1148,0)">
<text font-family="monospace" stroke="none" transform="scale(71.759) matrix(1 0 0 -1 0 0)">逆</text>
</g>
<g transform="translate(2296,0)">
<text font-family="monospace" stroke="none" transform="scale(71.759) matrix(1 0 0 -1 0 0)">，</text>
</g>
<g transform="translate(3444,0)">
<text font-family="monospace" stroke="none" transform="scale(71.759) matrix(1 0 0 -1 0 0)">行</text>
</g>
<g transform="translate(4592,0)">
<text font-family="monospace" stroke="none" transform="scale(71.759) matrix(1 0 0 -1 0 0)">列</text>
</g>
<g transform="translate(5740,0)">
<text font-family="monospace" stroke="none" transform="scale(71.759) matrix(1 0 0 -1 0 0)">式</text>
</g>
<g transform="translate(6888,0)">
<text font-family="monospace" stroke="none" transform="scale(71.759) matrix(1 0 0 -1 0 0)">，</text>
</g>
 <use xlink:href="#E1-MJMATHI-4C" x="8037" y="0"></use>
 <use xlink:href="#E1-MJMATHI-55" x="8718" y="0"></use>
<g transform="translate(9486,0)">
<text font-family="monospace" stroke="none" transform="scale(71.759) matrix(1 0 0 -1 0 0)">分</text>
</g>
<g transform="translate(10634,0)">
<text font-family="monospace" stroke="none" transform="scale(71.759) matrix(1 0 0 -1 0 0)">解</text>
</g>
</g>
<g transform="translate(8808,2572)">
 <use xlink:href="#E1-MJMATHI-4C" x="0" y="0"></use>
 <use xlink:href="#E1-MJMATHI-4C" x="681" y="0"></use>
 <use xlink:href="#E1-MJMATHI-54" x="1363" y="0"></use>
<g transform="translate(2067,0)">
<text font-family="monospace" stroke="none" transform="scale(71.759) matrix(1 0 0 -1 0 0)">和</text>
</g>
 <use xlink:href="#E1-MJMATHI-4C" x="3215" y="0"></use>
 <use xlink:href="#E1-MJMATHI-44" x="3897" y="0"></use>
 <use xlink:href="#E1-MJMATHI-4C" x="4725" y="0"></use>
 <use xlink:href="#E1-MJMATHI-54" x="5407" y="0"></use>
 <use xlink:href="#E1-MJMATHI-43" x="6111" y="0"></use>
 <use xlink:href="#E1-MJMATHI-68" x="6872" y="0"></use>
 <use xlink:href="#E1-MJMATHI-6F" x="7448" y="0"></use>
 <use xlink:href="#E1-MJMATHI-6C" x="7934" y="0"></use>
 <use xlink:href="#E1-MJMATHI-65" x="8232" y="0"></use>
 <use xlink:href="#E1-MJMATHI-73" x="8699" y="0"></use>
 <use xlink:href="#E1-MJMATHI-6B" x="9168" y="0"></use>
 <use xlink:href="#E1-MJMATHI-79" x="9690" y="0"></use>
<g transform="translate(10187,0)">
<text font-family="monospace" stroke="none" transform="scale(71.759) matrix(1 0 0 -1 0 0)">分</text>
</g>
<g transform="translate(11335,0)">
<text font-family="monospace" stroke="none" transform="scale(71.759) matrix(1 0 0 -1 0 0)">解</text>
</g>
</g>
<g transform="translate(5865,880)">
<text font-family="monospace" stroke="none" transform="scale(71.759) matrix(1 0 0 -1 0 0)">豪</text>
<g transform="translate(1148,0)">
<text font-family="monospace" stroke="none" transform="scale(71.759) matrix(1 0 0 -1 0 0)">斯</text>
</g>
<g transform="translate(2296,0)">
<text font-family="monospace" stroke="none" transform="scale(71.759) matrix(1 0 0 -1 0 0)">霍</text>
</g>
<g transform="translate(3444,0)">
<text font-family="monospace" stroke="none" transform="scale(71.759) matrix(1 0 0 -1 0 0)">尔</text>
</g>
<g transform="translate(4592,0)">
<text font-family="monospace" stroke="none" transform="scale(71.759) matrix(1 0 0 -1 0 0)">德</text>
</g>
<g transform="translate(5740,0)">
<text font-family="monospace" stroke="none" transform="scale(71.759) matrix(1 0 0 -1 0 0)">变</text>
</g>
<g transform="translate(6888,0)">
<text font-family="monospace" stroke="none" transform="scale(71.759) matrix(1 0 0 -1 0 0)">换</text>
</g>
<g transform="translate(8037,0)">
<text font-family="monospace" stroke="none" transform="scale(71.759) matrix(1 0 0 -1 0 0)">，</text>
</g>
<g transform="translate(9185,0)">
<text font-family="monospace" stroke="none" transform="scale(71.759) matrix(1 0 0 -1 0 0)">用</text>
</g>
<g transform="translate(10333,0)">
<text font-family="monospace" stroke="none" transform="scale(71.759) matrix(1 0 0 -1 0 0)">于</text>
</g>
<g transform="translate(11481,0)">
<text font-family="monospace" stroke="none" transform="scale(71.759) matrix(1 0 0 -1 0 0)">线</text>
</g>
<g transform="translate(12629,0)">
<text font-family="monospace" stroke="none" transform="scale(71.759) matrix(1 0 0 -1 0 0)">性</text>
</g>
<g transform="translate(13777,0)">
<text font-family="monospace" stroke="none" transform="scale(71.759) matrix(1 0 0 -1 0 0)">代</text>
</g>
<g transform="translate(14925,0)">
<text font-family="monospace" stroke="none" transform="scale(71.759) matrix(1 0 0 -1 0 0)">数</text>
</g>
<g transform="translate(16074,0)">
<text font-family="monospace" stroke="none" transform="scale(71.759) matrix(1 0 0 -1 0 0)">运</text>
</g>
<g transform="translate(17222,0)">
<text font-family="monospace" stroke="none" transform="scale(71.759) matrix(1 0 0 -1 0 0)">算</text>
</g>
</g>
<g transform="translate(12780,-812)">
 <use xlink:href="#E1-MJMATHI-53" x="0" y="0"></use>
 <use xlink:href="#E1-MJMATHI-56" x="645" y="0"></use>
 <use xlink:href="#E1-MJMATHI-44" x="1415" y="0"></use>
<g transform="translate(2243,0)">
<text font-family="monospace" stroke="none" transform="scale(71.759) matrix(1 0 0 -1 0 0)">分</text>
</g>
<g transform="translate(3391,0)">
<text font-family="monospace" stroke="none" transform="scale(71.759) matrix(1 0 0 -1 0 0)">解</text>
</g>
</g>
<g transform="translate(13126,-2503)">
 <use xlink:href="#E1-MJMATHI-51" x="0" y="0"></use>
 <use xlink:href="#E1-MJMATHI-52" x="791" y="0"></use>
<g transform="translate(1551,0)">
<text font-family="monospace" stroke="none" transform="scale(71.759) matrix(1 0 0 -1 0 0)">分</text>
</g>
<g transform="translate(2699,0)">
<text font-family="monospace" stroke="none" transform="scale(71.759) matrix(1 0 0 -1 0 0)">解</text>
</g>
</g>
<g transform="translate(9309,-4195)">
<text font-family="monospace" stroke="none" transform="scale(71.759) matrix(1 0 0 -1 0 0)">特</text>
<g transform="translate(1148,0)">
<text font-family="monospace" stroke="none" transform="scale(71.759) matrix(1 0 0 -1 0 0)">征</text>
</g>
<g transform="translate(2296,0)">
<text font-family="monospace" stroke="none" transform="scale(71.759) matrix(1 0 0 -1 0 0)">值</text>
</g>
<g transform="translate(3444,0)">
<text font-family="monospace" stroke="none" transform="scale(71.759) matrix(1 0 0 -1 0 0)">，</text>
</g>
<g transform="translate(4592,0)">
<text font-family="monospace" stroke="none" transform="scale(71.759) matrix(1 0 0 -1 0 0)">特</text>
</g>
<g transform="translate(5740,0)">
<text font-family="monospace" stroke="none" transform="scale(71.759) matrix(1 0 0 -1 0 0)">征</text>
</g>
<g transform="translate(6888,0)">
<text font-family="monospace" stroke="none" transform="scale(71.759) matrix(1 0 0 -1 0 0)">向</text>
</g>
<g transform="translate(8037,0)">
<text font-family="monospace" stroke="none" transform="scale(71.759) matrix(1 0 0 -1 0 0)">量</text>
</g>
<g transform="translate(9185,0)">
<text font-family="monospace" stroke="none" transform="scale(71.759) matrix(1 0 0 -1 0 0)">分</text>
</g>
<g transform="translate(10333,0)">
<text font-family="monospace" stroke="none" transform="scale(71.759) matrix(1 0 0 -1 0 0)">解</text>
</g>
</g>
<g transform="translate(5291,-5887)">
<text font-family="monospace" stroke="none" transform="scale(71.759) matrix(1 0 0 -1 0 0)">稀</text>
<g transform="translate(1148,0)">
<text font-family="monospace" stroke="none" transform="scale(71.759) matrix(1 0 0 -1 0 0)">疏</text>
</g>
<g transform="translate(2296,0)">
<text font-family="monospace" stroke="none" transform="scale(71.759) matrix(1 0 0 -1 0 0)">矩</text>
</g>
<g transform="translate(3444,0)">
<text font-family="monospace" stroke="none" transform="scale(71.759) matrix(1 0 0 -1 0 0)">阵</text>
</g>
<g transform="translate(4592,0)">
<text font-family="monospace" stroke="none" transform="scale(71.759) matrix(1 0 0 -1 0 0)">的</text>
</g>
<g transform="translate(5740,0)">
<text font-family="monospace" stroke="none" transform="scale(71.759) matrix(1 0 0 -1 0 0)">存</text>
</g>
<g transform="translate(6888,0)">
<text font-family="monospace" stroke="none" transform="scale(71.759) matrix(1 0 0 -1 0 0)">储</text>
</g>
<g transform="translate(8037,0)">
<text font-family="monospace" stroke="none" transform="scale(71.759) matrix(1 0 0 -1 0 0)">和</text>
</g>
<g transform="translate(9185,0)">
<text font-family="monospace" stroke="none" transform="scale(71.759) matrix(1 0 0 -1 0 0)">一</text>
</g>
<g transform="translate(10333,0)">
<text font-family="monospace" stroke="none" transform="scale(71.759) matrix(1 0 0 -1 0 0)">些</text>
</g>
<g transform="translate(11481,0)">
<text font-family="monospace" stroke="none" transform="scale(71.759) matrix(1 0 0 -1 0 0)">基</text>
</g>
<g transform="translate(12629,0)">
<text font-family="monospace" stroke="none" transform="scale(71.759) matrix(1 0 0 -1 0 0)">本</text>
</g>
<g transform="translate(13777,0)">
<text font-family="monospace" stroke="none" transform="scale(71.759) matrix(1 0 0 -1 0 0)">的</text>
</g>
<g transform="translate(14925,0)">
<text font-family="monospace" stroke="none" transform="scale(71.759) matrix(1 0 0 -1 0 0)">线</text>
</g>
<g transform="translate(16074,0)">
<text font-family="monospace" stroke="none" transform="scale(71.759) matrix(1 0 0 -1 0 0)">性</text>
</g>
<g transform="translate(17222,0)">
<text font-family="monospace" stroke="none" transform="scale(71.759) matrix(1 0 0 -1 0 0)">运</text>
</g>
<g transform="translate(18370,0)">
<text font-family="monospace" stroke="none" transform="scale(71.759) matrix(1 0 0 -1 0 0)">算</text>
</g>
</g>
<g transform="translate(0,-7578)">
<text font-family="monospace" stroke="none" transform="scale(71.759) matrix(1 0 0 -1 0 0)">包</text>
<g transform="translate(1148,0)">
<text font-family="monospace" stroke="none" transform="scale(71.759) matrix(1 0 0 -1 0 0)">含</text>
</g>
<g transform="translate(2296,0)">
<text font-family="monospace" stroke="none" transform="scale(71.759) matrix(1 0 0 -1 0 0)">了</text>
</g>
 <use xlink:href="#E1-MJMATHI-43" x="3444" y="0"></use>
 <use xlink:href="#E1-MJMATHI-6F" x="4204" y="0"></use>
 <use xlink:href="#E1-MJMATHI-72" x="4690" y="0"></use>
 <use xlink:href="#E1-MJMATHI-65" x="5141" y="0"></use>
 <use xlink:href="#E1-MJMAIN-2F" x="5608" y="0"></use>
 <use xlink:href="#E1-MJMATHI-47" x="6108" y="0"></use>
 <use xlink:href="#E1-MJMATHI-65" x="6895" y="0"></use>
 <use xlink:href="#E1-MJMATHI-6F" x="7361" y="0"></use>
 <use xlink:href="#E1-MJMATHI-6D" x="7847" y="0"></use>
 <use xlink:href="#E1-MJMATHI-65" x="8725" y="0"></use>
 <use xlink:href="#E1-MJMATHI-74" x="9192" y="0"></use>
 <use xlink:href="#E1-MJMATHI-72" x="9553" y="0"></use>
 <use xlink:href="#E1-MJMATHI-79" x="10005" y="0"></use>
 <use xlink:href="#E1-MJMAIN-2F" x="10502" y="0"></use>
 <use xlink:href="#E1-MJMATHI-4C" x="11003" y="0"></use>
 <use xlink:href="#E1-MJMATHI-55" x="11684" y="0"></use>
 <use xlink:href="#E1-MJMAIN-2F" x="12452" y="0"></use>
 <use xlink:href="#E1-MJMATHI-43" x="12952" y="0"></use>
 <use xlink:href="#E1-MJMATHI-68" x="13713" y="0"></use>
 <use xlink:href="#E1-MJMATHI-6F" x="14289" y="0"></use>
 <use xlink:href="#E1-MJMATHI-6C" x="14775" y="0"></use>
 <use xlink:href="#E1-MJMATHI-65" x="15073" y="0"></use>
 <use xlink:href="#E1-MJMATHI-73" x="15540" y="0"></use>
 <use xlink:href="#E1-MJMATHI-6B" x="16009" y="0"></use>
 <use xlink:href="#E1-MJMATHI-79" x="16531" y="0"></use>
 <use xlink:href="#E1-MJMAIN-2F" x="17028" y="0"></use>
 <use xlink:href="#E1-MJMATHI-53" x="17529" y="0"></use>
 <use xlink:href="#E1-MJMATHI-56" x="18174" y="0"></use>
 <use xlink:href="#E1-MJMATHI-44" x="18944" y="0"></use>
 <use xlink:href="#E1-MJMAIN-2F" x="19772" y="0"></use>
 <use xlink:href="#E1-MJMATHI-51" x="20273" y="0"></use>
 <use xlink:href="#E1-MJMATHI-52" x="21064" y="0"></use>
 <use xlink:href="#E1-MJMAIN-2F" x="21824" y="0"></use>
 <use xlink:href="#E1-MJMATHI-45" x="22324" y="0"></use>
 <use xlink:href="#E1-MJMATHI-69" x="23089" y="0"></use>
 <use xlink:href="#E1-MJMATHI-67" x="23434" y="0"></use>
 <use xlink:href="#E1-MJMATHI-65" x="23915" y="0"></use>
 <use xlink:href="#E1-MJMATHI-6E" x="24381" y="0"></use>
 <use xlink:href="#E1-MJMATHI-76" x="24982" y="0"></use>
 <use xlink:href="#E1-MJMATHI-61" x="25467" y="0"></use>
 <use xlink:href="#E1-MJMATHI-6C" x="25997" y="0"></use>
 <use xlink:href="#E1-MJMATHI-75" x="26295" y="0"></use>
 <use xlink:href="#E1-MJMATHI-65" x="26868" y="0"></use>
 <use xlink:href="#E1-MJMATHI-73" x="27334" y="0"></use>
<g transform="translate(27804,0)">
<text font-family="monospace" stroke="none" transform="scale(71.759) matrix(1 0 0 -1 0 0)">模</text>
</g>
<g transform="translate(28952,0)">
<text font-family="monospace" stroke="none" transform="scale(71.759) matrix(1 0 0 -1 0 0)">块</text>
</g>
</g>
<g transform="translate(6938,-9270)">
<text font-family="monospace" stroke="none" transform="scale(71.759) matrix(1 0 0 -1 0 0)">包</text>
<g transform="translate(1148,0)">
<text font-family="monospace" stroke="none" transform="scale(71.759) matrix(1 0 0 -1 0 0)">括</text>
</g>
 <use xlink:href="#E1-MJMATHI-44" x="2296" y="0"></use>
 <use xlink:href="#E1-MJMATHI-65" x="3124" y="0"></use>
 <use xlink:href="#E1-MJMATHI-6E" x="3591" y="0"></use>
 <use xlink:href="#E1-MJMATHI-73" x="4191" y="0"></use>
 <use xlink:href="#E1-MJMATHI-65" x="4661" y="0"></use>
<g transform="translate(5127,0)">
<text font-family="monospace" stroke="none" transform="scale(71.759) matrix(1 0 0 -1 0 0)">和</text>
</g>
 <use xlink:href="#E1-MJMATHI-53" x="6275" y="0"></use>
 <use xlink:href="#E1-MJMATHI-70" x="6921" y="0"></use>
 <use xlink:href="#E1-MJMATHI-61" x="7424" y="0"></use>
 <use xlink:href="#E1-MJMATHI-72" x="7954" y="0"></use>
 <use xlink:href="#E1-MJMATHI-73" x="8405" y="0"></use>
 <use xlink:href="#E1-MJMATHI-65" x="8875" y="0"></use>
 <use xlink:href="#E1-MJMAIN-28" x="9341" y="0"></use>
<g transform="translate(9731,0)">
<text font-family="monospace" stroke="none" transform="scale(71.759) matrix(1 0 0 -1 0 0)">整</text>
</g>
<g transform="translate(10879,0)">
<text font-family="monospace" stroke="none" transform="scale(71.759) matrix(1 0 0 -1 0 0)">个</text>
</g>
 <use xlink:href="#E1-MJMATHI-45" x="12027" y="0"></use>
 <use xlink:href="#E1-MJMATHI-69" x="12792" y="0"></use>
 <use xlink:href="#E1-MJMATHI-67" x="13137" y="0"></use>
 <use xlink:href="#E1-MJMATHI-65" x="13618" y="0"></use>
 <use xlink:href="#E1-MJMATHI-6E" x="14084" y="0"></use>
<g transform="translate(14685,0)">
<text font-family="monospace" stroke="none" transform="scale(71.759) matrix(1 0 0 -1 0 0)">库</text>
</g>
 <use xlink:href="#E1-MJMAIN-29" x="15833" y="0"></use>
</g>
</g>
<line stroke-linecap="square" stroke-width="20.9" y2="10" y1="10" x1="10" x2="53871" transform="translate(0,8697)"></line>
</g>
</g>
</svg>